<svg width="315" height="202" viewBox="0 0 315 202" fill="none" xmlns="http://www.w3.org/2000/svg">
<rect width="314.345" height="201.257" rx="7.66695" fill="url(#paint0_linear_0_758)"/>
<g clip-path="url(#clip0_0_758)">
<circle cx="24.4385" cy="28.2719" r="1.43755" fill="#F7F6F5"/>
<circle cx="34.9805" cy="28.2719" r="1.43755" fill="#F7F6F5"/>
<circle cx="45.5225" cy="28.2719" r="1.43755" fill="#F7F6F5"/>
<circle cx="56.0645" cy="28.2719" r="1.43755" fill="#F7F6F5"/>
<path d="M73.848 26.8345C74.6658 26.9878 75.3353 27.3405 75.8567 27.8925C76.378 28.4445 76.6387 29.1448 76.6387 29.9932C76.6387 31.0359 76.2809 31.8589 75.5653 32.462C74.8498 33.0651 73.9808 33.3667 72.9586 33.3667C72.1408 33.3667 71.415 33.1827 70.7812 32.8147C70.1474 32.4364 69.6976 31.8946 69.4318 31.1893L70.6278 30.4839C70.9447 31.4755 71.7217 31.9713 72.9586 31.9713C73.6231 31.9713 74.1649 31.7975 74.584 31.45C75.0031 31.1024 75.2127 30.6168 75.2127 29.9932C75.2127 29.3697 75.0031 28.8841 74.584 28.5365C74.1649 28.1787 73.6231 27.9998 72.9586 27.9998H72.5906L72.0232 27.1258L74.5073 23.7677H69.7385V22.4336H76.1787V23.691L73.848 26.8345ZM83.848 27.6165C84.3694 27.8823 84.7783 28.2401 85.0748 28.6899C85.3712 29.1397 85.5194 29.6508 85.5194 30.2233C85.5194 31.2046 85.177 31.9764 84.4921 32.5387C83.8072 33.0907 82.9229 33.3667 81.8393 33.3667C80.7659 33.3667 79.8868 33.0907 79.2019 32.5387C78.517 31.9764 78.1745 31.2046 78.1745 30.2233C78.1745 29.6508 78.3227 29.1397 78.6192 28.6899C78.9156 28.2401 79.3245 27.8823 79.8459 27.6165C78.9668 27.0645 78.5272 26.2824 78.5272 25.2704C78.5272 24.2993 78.8492 23.553 79.4932 23.0317C80.1475 22.5001 80.9295 22.2343 81.8393 22.2343C82.7593 22.2343 83.5414 22.5001 84.1854 23.0317C84.8396 23.553 85.1668 24.2993 85.1668 25.2704C85.1668 26.2824 84.7272 27.0645 83.848 27.6165ZM81.8393 23.599C81.2975 23.599 80.8426 23.7421 80.4746 24.0284C80.1168 24.3146 79.9379 24.7388 79.9379 25.3011C79.9379 25.8429 80.1219 26.2671 80.4899 26.5738C80.8579 26.8702 81.3077 27.0185 81.8393 27.0185C82.3709 27.0185 82.8207 26.8702 83.1887 26.5738C83.5567 26.2671 83.7407 25.8429 83.7407 25.3011C83.7407 24.7388 83.5618 24.3146 83.204 24.0284C82.8462 23.7421 82.3913 23.599 81.8393 23.599ZM81.8393 32.002C82.5242 32.002 83.0711 31.8435 83.48 31.5266C83.8992 31.1995 84.1087 30.7344 84.1087 30.1312C84.1087 29.5383 83.8992 29.0834 83.48 28.7665C83.0711 28.4394 82.5242 28.2758 81.8393 28.2758C81.1646 28.2758 80.6177 28.4394 80.1986 28.7665C79.7897 29.0834 79.5852 29.5383 79.5852 30.1312C79.5852 30.7344 79.7897 31.1995 80.1986 31.5266C80.6177 31.8435 81.1646 32.002 81.8393 32.002ZM86.6069 22.4336H93.3079V23.7063L89.3977 33.1674H87.9103L91.7898 23.783H86.6069V22.4336ZM94.5589 33.1674V32.002L98.3464 28.1378C99.3584 27.1258 99.8644 26.2569 99.8644 25.5311C99.8644 24.9279 99.6804 24.4577 99.3124 24.1204C98.9444 23.783 98.4946 23.6143 97.963 23.6143C96.951 23.6143 96.215 24.0948 95.7549 25.0557L94.5589 24.3504C94.8962 23.6552 95.3614 23.1288 95.9543 22.771C96.5574 22.4132 97.2219 22.2343 97.9477 22.2343C98.8473 22.2343 99.6293 22.5307 100.294 23.1237C100.958 23.7166 101.29 24.5139 101.29 25.5157C101.29 26.5993 100.652 27.7801 99.3737 29.0579L96.629 31.7873H101.49V33.1674H94.5589Z" fill="white"/>
</g>
<path d="M253.17 22.4336H254.397V33.1674H252.986V23.967L250.702 24.6417L250.349 23.415L253.17 22.4336ZM256.259 22.4336H262.96V23.7063L259.05 33.1674H257.563L261.442 23.783H256.259V22.4336ZM265.264 34.7007H264.467L270.6 20.9002H271.397L265.264 34.7007ZM272.92 33.1674V32.002L276.708 28.1378C277.72 27.1258 278.226 26.2569 278.226 25.5311C278.226 24.9279 278.042 24.4577 277.674 24.1204C277.306 23.783 276.856 23.6143 276.325 23.6143C275.313 23.6143 274.577 24.0948 274.116 25.0557L272.92 24.3504C273.258 23.6552 273.723 23.1288 274.316 22.771C274.919 22.4132 275.583 22.2343 276.309 22.2343C277.209 22.2343 277.991 22.5307 278.655 23.1237C279.32 23.7166 279.652 24.5139 279.652 25.5157C279.652 26.5993 279.013 27.7801 277.735 29.0579L274.991 31.7873H279.851V33.1674H272.92ZM288.57 31.8486C287.844 32.8607 286.827 33.3667 285.518 33.3667C284.21 33.3667 283.193 32.8607 282.467 31.8486C281.741 30.8366 281.378 29.4872 281.378 27.8005C281.378 26.1138 281.741 24.7644 282.467 23.7523C283.193 22.7403 284.21 22.2343 285.518 22.2343C286.827 22.2343 287.844 22.7403 288.57 23.7523C289.296 24.7644 289.659 26.1138 289.659 27.8005C289.659 29.4872 289.296 30.8366 288.57 31.8486ZM283.51 30.8826C283.98 31.6084 284.65 31.9713 285.518 31.9713C286.387 31.9713 287.057 31.6084 287.527 30.8826C288.008 30.1568 288.248 29.1294 288.248 27.8005C288.248 26.4716 288.008 25.4442 287.527 24.7184C287.057 23.9824 286.387 23.6143 285.518 23.6143C284.65 23.6143 283.98 23.9772 283.51 24.703C283.039 25.4289 282.804 26.4613 282.804 27.8005C282.804 29.1294 283.039 30.1568 283.51 30.8826Z" fill="white"/>
<path d="M35.9332 171.596C35.9332 173.008 35.4764 174.163 34.5627 175.06C33.6657 175.94 32.4863 176.472 31.0244 176.655V178.872H29.4048V176.68C28.026 176.597 26.8466 176.223 25.8665 175.558C24.8864 174.894 24.1804 173.988 23.7485 172.842L26.2153 171.422C26.7968 172.884 27.8599 173.698 29.4048 173.864V168.681C28.6573 168.399 28.0509 168.149 27.5858 167.933C27.1207 167.701 26.6223 167.385 26.0908 166.987C25.5758 166.588 25.1854 166.106 24.9196 165.541C24.6705 164.96 24.5459 164.287 24.5459 163.523C24.5459 162.128 25.011 160.998 25.9413 160.134C26.8715 159.27 28.026 158.772 29.4048 158.639V156.446H31.0244V158.664C33.2504 158.963 34.7953 160.101 35.6591 162.078L33.2421 163.473C32.8102 162.393 32.071 161.737 31.0244 161.505V166.438C31.556 166.638 31.9547 166.796 32.2205 166.912C32.5029 167.028 32.8683 167.203 33.3169 167.435C33.782 167.668 34.1391 167.9 34.3883 168.133C34.6375 168.365 34.895 168.648 35.1608 168.98C35.4432 169.312 35.6425 169.703 35.7588 170.151C35.8751 170.583 35.9332 171.065 35.9332 171.596ZM27.4114 163.523C27.4114 164.038 27.5609 164.462 27.8599 164.794C28.1755 165.126 28.6905 165.458 29.4048 165.791V161.455C28.7902 161.555 28.3001 161.787 27.9347 162.153C27.5858 162.518 27.4114 162.975 27.4114 163.523ZM31.0244 173.839C31.6889 173.706 32.1956 173.44 32.5444 173.042C32.8933 172.643 33.0677 172.169 33.0677 171.621C33.0677 171.073 32.9016 170.633 32.5693 170.301C32.2371 169.952 31.7221 169.62 31.0244 169.304V173.839ZM44.9242 176.381V174.138L51.004 167.933C52.4825 166.455 53.2217 165.176 53.2217 164.096C53.2217 163.249 52.9642 162.593 52.4493 162.128C51.9509 161.646 51.3114 161.405 50.5306 161.405C49.0688 161.405 47.989 162.128 47.2913 163.573L44.8743 162.153C45.4225 160.99 46.195 160.109 47.1917 159.511C48.1884 158.913 49.293 158.614 50.5057 158.614C52.034 158.614 53.3463 159.096 54.4427 160.06C55.539 161.023 56.0872 162.335 56.0872 163.997C56.0872 165.774 55.0988 167.668 53.122 169.678L49.1851 173.615H56.4112V176.381H44.9242ZM64.5724 165.516C66.2336 165.516 67.6373 166.015 68.7835 167.012C69.9297 167.992 70.5028 169.354 70.5028 171.098C70.5028 172.842 69.9131 174.213 68.7337 175.209C67.5543 176.206 66.109 176.704 64.398 176.704C63.0193 176.704 61.7983 176.389 60.7351 175.758C59.672 175.11 58.9162 174.18 58.4676 172.967L60.9345 171.547C61.3996 173.125 62.5541 173.914 64.398 173.914C65.3781 173.914 66.1589 173.665 66.7403 173.166C67.3383 172.651 67.6373 171.962 67.6373 171.098C67.6373 170.234 67.3466 169.553 66.7652 169.055C66.1838 168.556 65.4113 168.307 64.4479 168.307H59.3647L60.0375 158.938H69.7553V161.629H62.6787L62.3797 165.516H64.5724ZM76.742 173.39L74.9977 179.869H72.7551L73.7519 173.39H76.742ZM86.9743 166.065C88.2368 166.364 89.2584 166.953 90.0392 167.834C90.8365 168.698 91.2352 169.786 91.2352 171.098C91.2352 172.842 90.6455 174.213 89.4661 175.209C88.2866 176.206 86.8414 176.704 85.1304 176.704C83.8015 176.704 82.6054 176.397 81.5423 175.783C80.4958 175.168 79.7399 174.271 79.2748 173.091L81.7167 171.671C82.2317 173.166 83.3696 173.914 85.1304 173.914C86.1271 173.914 86.9162 173.665 87.4976 173.166C88.079 172.651 88.3697 171.962 88.3697 171.098C88.3697 170.234 88.079 169.553 87.4976 169.055C86.9162 168.556 86.1271 168.307 85.1304 168.307H84.4826L83.3364 166.588L87.0989 161.629H79.7981V158.938H90.5126V161.38L86.9743 166.065ZM103.271 167.311C104.982 168.257 105.838 169.669 105.838 171.547C105.838 173.141 105.281 174.404 104.168 175.334C103.055 176.248 101.577 176.704 99.7331 176.704C97.8892 176.704 96.4024 176.248 95.2728 175.334C94.1599 174.404 93.6034 173.141 93.6034 171.547C93.6034 170.65 93.8276 169.836 94.2761 169.105C94.7247 168.357 95.3559 167.759 96.1699 167.311C94.8576 166.447 94.2014 165.217 94.2014 163.623C94.2014 162.028 94.733 160.799 95.7961 159.935C96.8593 159.055 98.1716 158.614 99.7331 158.614C101.278 158.614 102.582 159.055 103.645 159.935C104.725 160.799 105.265 162.028 105.265 163.623C105.265 165.217 104.6 166.447 103.271 167.311ZM99.7331 161.33C98.9523 161.33 98.3128 161.538 97.8144 161.953C97.3161 162.369 97.0669 162.967 97.0669 163.747C97.0669 164.495 97.3161 165.085 97.8144 165.516C98.3294 165.948 98.969 166.164 99.7331 166.164C100.481 166.164 101.112 165.948 101.627 165.516C102.142 165.085 102.399 164.495 102.399 163.747C102.399 162.967 102.142 162.369 101.627 161.953C101.128 161.538 100.497 161.33 99.7331 161.33ZM99.7331 173.988C100.697 173.988 101.477 173.756 102.075 173.291C102.673 172.809 102.972 172.136 102.972 171.272C102.972 170.409 102.673 169.744 102.075 169.279C101.477 168.797 100.697 168.556 99.7331 168.556C98.753 168.556 97.9639 168.797 97.3659 169.279C96.7679 169.744 96.4689 170.409 96.4689 171.272C96.4689 172.136 96.7679 172.809 97.3659 173.291C97.9639 173.756 98.753 173.988 99.7331 173.988ZM117.862 167.311C119.573 168.257 120.428 169.669 120.428 171.547C120.428 173.141 119.872 174.404 118.759 175.334C117.646 176.248 116.167 176.704 114.324 176.704C112.48 176.704 110.993 176.248 109.863 175.334C108.75 174.404 108.194 173.141 108.194 171.547C108.194 170.65 108.418 169.836 108.867 169.105C109.315 168.357 109.946 167.759 110.76 167.311C109.448 166.447 108.792 165.217 108.792 163.623C108.792 162.028 109.323 160.799 110.387 159.935C111.45 159.055 112.762 158.614 114.324 158.614C115.868 158.614 117.172 159.055 118.236 159.935C119.315 160.799 119.855 162.028 119.855 163.623C119.855 165.217 119.191 166.447 117.862 167.311ZM114.324 161.33C113.543 161.33 112.903 161.538 112.405 161.953C111.906 162.369 111.657 162.967 111.657 163.747C111.657 164.495 111.906 165.085 112.405 165.516C112.92 165.948 113.559 166.164 114.324 166.164C115.071 166.164 115.702 165.948 116.217 165.516C116.732 165.085 116.99 164.495 116.99 163.747C116.99 162.967 116.732 162.369 116.217 161.953C115.719 161.538 115.088 161.33 114.324 161.33ZM114.324 173.988C115.287 173.988 116.068 173.756 116.666 173.291C117.264 172.809 117.563 172.136 117.563 171.272C117.563 170.409 117.264 169.744 116.666 169.279C116.068 168.797 115.287 168.556 114.324 168.556C113.343 168.556 112.554 168.797 111.956 169.279C111.358 169.744 111.059 170.409 111.059 171.272C111.059 172.136 111.358 172.809 111.956 173.291C112.554 173.756 113.343 173.988 114.324 173.988Z" fill="white"/>
<defs>
<linearGradient id="paint0_linear_0_758" x1="-103.677" y1="210.439" x2="302.318" y2="243.064" gradientUnits="userSpaceOnUse">
<stop stop-color="#02DA80"/>
<stop offset="1" stop-color="#0284D8"/>
</linearGradient>
<clipPath id="clip0_0_758">
<rect width="80" height="18" fill="white" transform="translate(23.001 19.1674)"/>
</clipPath>
</defs>
</svg>
